<?xml version="1.0" encoding="utf-8"?>
<!-- Generator: Adobe Illustrator 27.7.0, SVG Export Plug-In . SVG Version: 6.00 Build 0)  -->
<svg version="1.1" id="레이어_1" xmlns="http://www.w3.org/2000/svg" xmlns:xlink="http://www.w3.org/1999/xlink" x="0px"
	 y="0px" viewBox="0 0 53 53" style="enable-background:new 0 0 53 53;" xml:space="preserve">
<style type="text/css">
	.st0{fill:#FFFFFF;}
</style>
<g transform="translate(-91 -555)">
	<path class="st0" d="M106.1,568.4h30.3v-3.3c0-1.3-1.1-2.4-2.4-2.4h-18.1l-6.6-4.4c-0.4-0.3-0.9-0.4-1.3-0.4H96.5
		c-1.3,0-2.4,1.1-2.4,2.4v30.2h0l8-19.4C102.8,569.4,104.3,568.4,106.1,568.4z"/>
	<path class="st0" d="M123.9,581.3c3.9-3.9,9.8-4.6,14.6-1.9l2.5-5.3c0.2-0.3,0.2-0.7,0.2-1.1c0-1.2-0.9-2.3-2.2-2.4h-32.9
		c-0.9,0-1.7,0.5-2.1,1.3l-8.2,19.8h24.6C119.9,587.8,121.2,584,123.9,581.3z"/>
	<path class="st0" d="M128.4,585.8c-1.5,1.5-2.1,3.8-1.4,5.9h5.7l3-6.5C133.5,583.6,130.4,583.8,128.4,585.8L128.4,585.8z"/>
	<path class="st0" d="M139.5,582.8c-3.9-3.9-10.2-3.9-14.1,0c-3.6,3.6-3.9,9.2-0.8,13.2l-1.6,1.6c-0.9-0.2-1.8,0-2.4,0.6l-4.5,4.5
		c-1,1-1,2.5,0,3.5c1,1,2.5,1,3.5,0l4.5-4.5c0.6-0.6,0.9-1.5,0.6-2.4l1.6-1.6c4.3,3.4,10.6,2.6,14-1.8
		C143.4,592,143,586.3,139.5,582.8z M138,595.3c-3.1,3.1-8,3.1-11.1,0c-3.1-3.1-3.1-8,0-11.1c3.1-3.1,8-3.1,11.1,0l0,0
		C141,587.3,141,592.3,138,595.3z"/>
</g>
</svg>
