<svg width="53" height="53" xmlns="http://www.w3.org/2000/svg" xmlns:xlink="http://www.w3.org/1999/xlink" xml:space="preserve" overflow="hidden"><g transform="translate(-884 -565)"><path d="M922.094 572.729 898.906 572.729C894.333 572.729 890.625 576.437 890.625 581.01 890.625 585.584 894.333 589.292 898.906 589.292L922.094 589.292C926.667 589.292 930.375 585.584 930.375 581.01 930.375 576.437 926.667 572.729 922.094 572.729ZM922.094 585.979C919.35 585.979 917.125 583.755 917.125 581.01 917.125 578.266 919.35 576.042 922.094 576.042 924.838 576.042 927.062 578.266 927.062 581.01 927.059 583.753 924.837 585.976 922.094 585.979Z" fill="#FFFFFF"/><path d="M922.094 593.708 898.906 593.708C894.333 593.708 890.625 597.416 890.625 601.99 890.625 606.563 894.333 610.271 898.906 610.271L922.094 610.271C926.667 610.271 930.375 606.563 930.375 601.99 930.375 597.416 926.667 593.708 922.094 593.708ZM898.906 606.958C896.162 606.958 893.938 604.734 893.938 601.99 893.938 599.245 896.162 597.021 898.906 597.021 901.65 597.021 903.875 599.245 903.875 601.99 903.872 604.732 901.649 606.955 898.906 606.958Z" fill="#FFFFFF"/></g></svg>