<svg width="53" height="53" xmlns="http://www.w3.org/2000/svg" xmlns:xlink="http://www.w3.org/1999/xlink" xml:space="preserve" overflow="hidden"><g transform="translate(-814 -563)"><path d="M846.739 583.593C844.42 583.593 842.598 581.716 842.598 579.452 842.598 577.189 844.475 575.311 846.739 575.311 849.057 575.311 850.879 577.189 850.879 579.452 850.879 581.716 849.002 583.593 846.739 583.593ZM856.069 576.857C855.848 576.084 855.572 575.367 855.185 574.704L856.069 572.109 854.081 570.122 851.486 571.005C850.824 570.619 850.106 570.343 849.333 570.122L848.119 567.693 845.358 567.693 844.144 570.122C843.371 570.343 842.653 570.619 841.991 571.005L839.396 570.122 837.408 572.109 838.292 574.704C837.905 575.367 837.629 576.084 837.408 576.857L834.979 578.072 834.979 580.832 837.408 582.047C837.629 582.82 837.905 583.537 838.292 584.2L837.408 586.795 839.341 588.727 841.935 587.844C842.598 588.23 843.316 588.506 844.089 588.727L845.303 591.156 848.064 591.156 849.278 588.727C850.051 588.506 850.769 588.23 851.431 587.844L854.026 588.727 856.014 586.795 855.13 584.2C855.517 583.537 855.848 582.765 856.069 582.047L858.498 580.832 858.498 578.072 856.069 576.857Z" fill="#FFFFFF"/><path d="M834.261 603.689C831.943 603.689 830.121 601.811 830.121 599.548 830.121 597.229 831.998 595.407 834.261 595.407 836.58 595.407 838.402 597.284 838.402 599.548 838.402 601.811 836.58 603.689 834.261 603.689L834.261 603.689ZM842.708 594.8 843.592 592.205 841.604 590.218 839.009 591.101C838.347 590.715 837.574 590.439 836.856 590.218L835.642 587.789 832.881 587.789 831.667 590.218C830.894 590.439 830.176 590.715 829.514 591.101L826.919 590.218 824.986 592.15 825.815 594.745C825.428 595.407 825.152 596.18 824.931 596.898L822.502 598.112 822.502 600.873 824.931 602.088C825.152 602.86 825.428 603.578 825.815 604.241L824.986 606.835 826.919 608.768 829.514 607.94C830.176 608.326 830.894 608.602 831.667 608.823L832.881 611.252 835.642 611.252 836.856 608.823C837.629 608.602 838.347 608.326 839.009 607.94L841.604 608.823 843.536 606.835 842.708 604.296C843.095 603.633 843.371 602.916 843.592 602.143L846.021 600.928 846.021 598.168 843.592 596.953C843.371 596.18 843.095 595.463 842.708 594.8Z" fill="#FFFFFF"/></g></svg>