<svg width="53" height="52" xmlns="http://www.w3.org/2000/svg" xmlns:xlink="http://www.w3.org/1999/xlink" xml:space="preserve" overflow="hidden"><g transform="translate(-341 -556)"><path d="M10.8333 7.04167 7.58333 7.04167 7.58333 44.9583 44.9583 44.9583 44.9583 41.7083 10.8333 41.7083 10.8333 7.04167Z" fill="#FFFFFF" transform="matrix(1.01923 0 0 1 341 556)"/><path d="M36.8333 7.04167 44.9583 7.04167 44.9583 38.4583 36.8333 38.4583Z" fill="#FFFFFF" transform="matrix(-1.01923 -1.22465e-16 1.2482e-16 -1 424.365 601.5)"/><path d="M25.4583 17.875 33.5833 17.875 33.5833 38.4583 25.4583 38.4583Z" fill="#FFFFFF" transform="matrix(-1.01923 -1.22465e-16 1.2482e-16 -1 401.177 612.333)"/><path d="M14.0833 27.625 22.2083 27.625 22.2083 38.4583 14.0833 38.4583Z" fill="#FFFFFF" transform="matrix(-1.01923 -1.22465e-16 1.2482e-16 -1 377.99 622.083)"/><path d="M31.4167 14.4842 31.4167 7.04167 23.9742 7.04167 26.9317 9.99917 13.8613 23.0696 15.3888 24.5971 28.4592 11.5321 31.4167 14.4842Z" fill="#FFFFFF" transform="matrix(1.01923 0 0 1 341 556)"/></g></svg>