<svg width="53" height="53" xmlns="http://www.w3.org/2000/svg" xmlns:xlink="http://www.w3.org/1999/xlink" xml:space="preserve" overflow="hidden"><g transform="translate(-423 -552)"><path d="M449.503 565.802C442.49 565.802 436.805 571.487 436.805 578.5 436.805 585.513 442.49 591.198 449.503 591.198 456.516 591.198 462.201 585.513 462.201 578.5 462.193 571.49 456.512 565.81 449.503 565.802ZM447.697 583.67 442.164 578.136 444.044 576.255 447.697 579.908 455.179 572.427 457.06 574.307Z" fill="#FFFFFF"/><path d="M468.34 579.198C468.008 578.792 468.008 578.208 468.34 577.802L469.7 576.135C470.086 575.663 470.016 574.967 469.544 574.581 469.512 574.555 469.478 574.53 469.443 574.508L467.634 573.343C467.193 573.059 467.012 572.504 467.202 572.015L467.981 570.009C468.202 569.441 467.92 568.801 467.352 568.58 467.313 568.565 467.274 568.552 467.233 568.542L465.153 567.993C464.645 567.859 464.302 567.387 464.332 566.863L464.453 564.714C464.487 564.106 464.021 563.584 463.412 563.55 463.371 563.548 463.33 563.548 463.288 563.55L461.14 563.671C460.616 563.7 460.144 563.357 460.01 562.85L459.461 560.769C459.306 560.18 458.702 559.828 458.112 559.983 458.072 559.994 458.032 560.007 457.994 560.022L455.988 560.801C455.499 560.99 454.944 560.81 454.66 560.369L453.495 558.56C453.165 558.047 452.481 557.899 451.969 558.229 451.934 558.252 451.9 558.276 451.868 558.303L450.201 559.663C449.795 559.995 449.211 559.995 448.804 559.663L447.138 558.303C446.665 557.917 445.97 557.987 445.584 558.459 445.558 558.491 445.533 558.525 445.511 558.56L444.346 560.369C444.062 560.81 443.507 560.99 443.018 560.801L441.012 560.022C440.443 559.801 439.803 560.083 439.583 560.651 439.568 560.69 439.555 560.729 439.544 560.769L438.996 562.85C438.862 563.357 438.39 563.7 437.866 563.671L435.717 563.55C435.108 563.516 434.587 563.982 434.553 564.591 434.551 564.632 434.551 564.673 434.553 564.714L434.674 566.863C434.703 567.387 434.36 567.859 433.853 567.993L431.772 568.542C431.182 568.697 430.831 569.301 430.986 569.891 430.997 569.931 431.01 569.97 431.025 570.009L431.804 572.015C431.993 572.504 431.813 573.059 431.372 573.343L429.563 574.508C429.05 574.838 428.901 575.521 429.231 576.034 429.254 576.069 429.278 576.103 429.305 576.135L430.666 577.802C430.998 578.208 430.998 578.792 430.666 579.198L429.305 580.865C428.919 581.337 428.989 582.033 429.462 582.419 429.494 582.445 429.528 582.47 429.563 582.492L431.372 583.657C431.813 583.941 431.993 584.496 431.804 584.985L431.025 586.991C430.804 587.559 431.086 588.199 431.654 588.42 431.693 588.435 431.732 588.448 431.772 588.458L433.853 589.007C434.36 589.141 434.703 589.613 434.674 590.137L434.553 592.286C434.519 592.894 434.985 593.416 435.593 593.45 435.635 593.452 435.676 593.452 435.717 593.45L437.866 593.329C438.39 593.3 438.862 593.643 438.996 594.15L439.544 596.231C439.7 596.82 440.304 597.172 440.894 597.017 440.934 597.006 440.973 596.993 441.012 596.978L443.018 596.199C443.507 596.01 444.062 596.19 444.346 596.631L445.511 598.44C445.841 598.953 446.524 599.101 447.037 598.771 447.072 598.748 447.105 598.724 447.138 598.697L448.804 597.337C449.211 597.005 449.795 597.005 450.201 597.337L451.868 598.697C452.34 599.083 453.036 599.013 453.422 598.541 453.448 598.509 453.472 598.475 453.495 598.44L454.66 596.631C454.944 596.19 455.499 596.01 455.988 596.199L457.994 596.978C458.562 597.199 459.202 596.917 459.423 596.349 459.438 596.31 459.451 596.271 459.461 596.231L460.01 594.15C460.144 593.643 460.616 593.3 461.14 593.329L463.288 593.45C463.897 593.484 464.418 593.018 464.453 592.409 464.455 592.368 464.455 592.327 464.453 592.286L464.332 590.137C464.302 589.613 464.645 589.141 465.153 589.007L467.233 588.458C467.823 588.303 468.175 587.699 468.019 587.109 468.009 587.069 467.996 587.03 467.981 586.991L467.202 584.985C467.012 584.496 467.193 583.941 467.634 583.657L469.443 582.492C469.956 582.162 470.104 581.479 469.773 580.966 469.751 580.931 469.727 580.897 469.7 580.865ZM449.503 592.854C441.575 592.854 435.149 586.428 435.149 578.5 435.149 570.572 441.575 564.146 449.503 564.146 457.43 564.146 463.857 570.572 463.857 578.5 463.848 586.424 457.427 592.845 449.503 592.854Z" fill="#FFFFFF"/></g></svg>