<svg width="53" height="53" xmlns="http://www.w3.org/2000/svg" xmlns:xlink="http://www.w3.org/1999/xlink" xml:space="preserve" overflow="hidden"><g transform="translate(-599 -558)"><path d="M640.958 570.146 640.958 590.021 610.042 590.021 610.042 570.146ZM645.375 591.125 644.271 591.125 644.271 568.49 645.375 568.49C645.985 568.49 646.479 567.995 646.479 567.385 646.479 566.776 645.985 566.281 645.375 566.281L626.604 566.281 626.604 565.177C626.604 564.567 626.11 564.073 625.5 564.073 624.89 564.073 624.396 564.567 624.396 565.177L624.396 566.281 605.625 566.281C605.015 566.281 604.521 566.776 604.521 567.385 604.521 567.995 605.015 568.49 605.625 568.49L606.729 568.49 606.729 591.125 605.625 591.125C605.015 591.125 604.521 591.619 604.521 592.229 604.521 592.839 605.015 593.333 605.625 593.333L622.486 593.333 613.984 601.835C613.552 602.271 613.556 602.975 613.992 603.406 614.428 603.838 615.131 603.834 615.562 603.398L624.396 594.564 624.396 604.375C624.396 604.985 624.89 605.479 625.5 605.479 626.11 605.479 626.604 604.985 626.604 604.375L626.604 594.548 635.438 603.381C635.869 603.813 636.568 603.813 637 603.381 637.431 602.95 637.431 602.25 637 601.819L628.514 593.333 645.375 593.333C645.985 593.333 646.479 592.839 646.479 592.229 646.479 591.619 645.985 591.125 645.375 591.125Z" fill="#FFFFFF"/><path d="M629.917 572.354 634.333 572.354 634.333 587.812 629.917 587.812Z" fill="#FFFFFF"/><path d="M623.292 577.323 627.708 577.323 627.708 587.812 623.292 587.812Z" fill="#FFFFFF"/><path d="M616.667 581.188 621.083 581.188 621.083 587.812 616.667 587.812Z" fill="#FFFFFF"/></g></svg>