<svg width="53" height="53" xmlns="http://www.w3.org/2000/svg" xmlns:xlink="http://www.w3.org/1999/xlink" xml:space="preserve" overflow="hidden"><g transform="translate(-1012 -564)"><path d="M1038.5 597.125C1034.86 597.125 1031.88 594.144 1031.88 590.5 1031.88 586.856 1034.86 583.875 1038.5 583.875 1042.14 583.875 1045.12 586.856 1045.12 590.5 1045.12 594.144 1042.14 597.125 1038.5 597.125ZM1053.41 586.359C1053.07 585.145 1052.58 583.985 1051.97 582.936L1053.35 578.796 1050.2 575.649 1046.06 577.029C1044.96 576.422 1043.8 575.925 1042.59 575.594L1040.71 571.729 1036.29 571.729 1034.36 575.594C1033.14 575.925 1031.99 576.422 1030.94 577.029L1026.8 575.649 1023.65 578.796 1025.03 582.936C1024.42 584.041 1023.92 585.2 1023.59 586.415L1019.73 588.292 1019.73 592.708 1023.59 594.641C1023.92 595.855 1024.42 597.015 1025.03 598.064L1023.65 602.204 1026.8 605.351 1030.94 603.971C1032.04 604.578 1033.2 605.075 1034.41 605.406L1036.35 609.271 1040.76 609.271 1042.7 605.406C1043.91 605.075 1045.07 604.578 1046.12 603.971L1050.26 605.351 1053.41 602.204 1052.03 598.064C1052.63 596.959 1053.13 595.8 1053.46 594.585L1057.33 592.653 1057.33 588.236 1053.41 586.359Z" fill="#FFFFFF"/></g></svg>