<svg width="53" height="53" xmlns="http://www.w3.org/2000/svg" xmlns:xlink="http://www.w3.org/1999/xlink" xml:space="preserve" overflow="hidden"><g transform="translate(-91 -555)"><path d="M108.603 573.114 132.105 573.114 132.105 570.551C132.105 569.514 131.265 568.673 130.228 568.673L116.162 568.673 111.004 565.251C110.696 565.051 110.339 564.937 109.972 564.922L101.158 564.922C100.122 564.922 99.2812 565.762 99.2812 566.799L99.2812 590.204 99.3 590.204 105.511 575.115C106.066 573.904 107.271 573.124 108.603 573.114Z" fill="#FFFFFF"/><path d="M122.446 583.127C125.441 580.134 130.069 579.518 133.742 581.624L135.669 577.484C135.795 577.222 135.859 576.934 135.857 576.644 135.862 575.68 135.136 574.869 134.178 574.767L108.611 574.767C107.925 574.771 107.303 575.174 107.017 575.798L100.688 591.182 119.813 591.182C119.359 588.231 120.336 585.24 122.446 583.127Z" fill="#FFFFFF"/><path d="M125.96 586.64C124.771 587.83 124.362 589.591 124.905 591.182L129.292 591.182 131.631 586.158C129.875 584.917 127.481 585.12 125.96 586.639Z" fill="#FFFFFF"/><path d="M134.548 584.298C131.533 581.279 126.641 581.275 123.622 584.29 120.858 587.05 120.589 591.438 122.994 594.515L121.783 595.726C121.119 595.546 120.41 595.734 119.923 596.219L116.41 599.733C115.655 600.487 115.655 601.711 116.41 602.465 117.164 603.22 118.388 603.22 119.142 602.465L122.656 598.952C123.141 598.465 123.329 597.756 123.149 597.092L124.364 595.877C127.738 598.49 132.59 597.872 135.202 594.499 137.586 591.42 137.306 587.047 134.548 584.298ZM133.377 594.058C131.005 596.429 127.16 596.429 124.788 594.058 122.417 591.686 122.417 587.841 124.788 585.469 127.16 583.098 131.005 583.098 133.377 585.469 133.377 585.469 133.377 585.469 133.377 585.469 135.745 587.843 135.745 591.685 133.377 594.058Z" fill="#FFFFFF"/></g></svg>