<svg width="53" height="53" xmlns="http://www.w3.org/2000/svg" xmlns:xlink="http://www.w3.org/1999/xlink" xml:space="preserve" overflow="hidden"><g transform="translate(-957 -561)"><path d="M974.115 569.833 992.885 569.833 992.885 577.562 974.115 577.562Z" fill="#FFFFFF"/><path d="M970.25 602.406C970.25 604.236 968.767 605.719 966.938 605.719 965.108 605.719 963.625 604.236 963.625 602.406 963.625 600.577 965.108 599.094 966.938 599.094 968.767 599.094 970.25 600.577 970.25 602.406Z" fill="#FFFFFF"/><path d="M986.812 602.406C986.812 604.236 985.329 605.719 983.5 605.719 981.671 605.719 980.188 604.236 980.188 602.406 980.188 600.577 981.671 599.094 983.5 599.094 985.329 599.094 986.812 600.577 986.812 602.406Z" fill="#FFFFFF"/><path d="M1003.38 602.406C1003.38 604.236 1001.89 605.719 1000.06 605.719 998.233 605.719 996.75 604.236 996.75 602.406 996.75 600.577 998.233 599.094 1000.06 599.094 1001.89 599.094 1003.38 600.577 1003.38 602.406Z" fill="#FFFFFF"/><path d="M987.089 587.5 984.604 585.016 984.604 579.771 982.396 579.771 982.396 585.016 979.911 587.5 965.833 587.5 965.833 597.438 968.042 597.438 968.042 589.708 979.911 589.708 982.396 592.193 982.396 597.438 984.604 597.438 984.604 592.193 987.089 589.708 998.958 589.708 998.958 597.438 1001.17 597.438 1001.17 587.5ZM983.5 591.365 980.74 588.604 983.5 585.844 986.26 588.604Z" fill="#FFFFFF"/></g></svg>