<?xml version="1.0" encoding="utf-8"?>
<!-- Generator: Adobe Illustrator 27.7.0, SVG Export Plug-In . SVG Version: 6.00 Build 0)  -->
<svg version="1.1" id="레이어_1" xmlns="http://www.w3.org/2000/svg" xmlns:xlink="http://www.w3.org/1999/xlink" x="0px"
	 y="0px" viewBox="0 0 53 53" style="enable-background:new 0 0 53 53;" xml:space="preserve">
<style type="text/css">
	.st0{fill:#FFFFFF;}
</style>
<g transform="translate(-957 -561)">
	<path class="st0" d="M971.5,565h24.3v10h-24.3V565z"/>
	<path class="st0" d="M966.5,607.2c0,2.4-1.9,4.3-4.3,4.3c-2.4,0-4.3-1.9-4.3-4.3c0-2.4,1.9-4.3,4.3-4.3
		C964.5,602.9,966.5,604.8,966.5,607.2z"/>
	<path class="st0" d="M987.9,607.2c0,2.4-1.9,4.3-4.3,4.3c-2.4,0-4.3-1.9-4.3-4.3c0-2.4,1.9-4.3,4.3-4.3
		C986,602.9,987.9,604.8,987.9,607.2z"/>
	<path class="st0" d="M1009.4,607.2c0,2.4-1.9,4.3-4.3,4.3c-2.4,0-4.3-1.9-4.3-4.3c0-2.4,1.9-4.3,4.3-4.3
		C1007.4,602.9,1009.4,604.8,1009.4,607.2z"/>
	<path class="st0" d="M988.3,587.9l-3.2-3.2v-6.8h-2.9v6.8l-3.2,3.2h-18.2v12.9h2.9v-10H979l3.2,3.2v6.8h2.9V594l3.2-3.2h15.4v10
		h2.9v-12.9H988.3z M983.6,592.9l-3.6-3.6l3.6-3.6l3.6,3.6L983.6,592.9z"/>
</g>
</svg>
