<?xml version="1.0" encoding="utf-8"?>
<!-- Generator: Adobe Illustrator 27.7.0, SVG Export Plug-In . SVG Version: 6.00 Build 0)  -->
<svg version="1.1" id="레이어_1" xmlns="http://www.w3.org/2000/svg" xmlns:xlink="http://www.w3.org/1999/xlink" x="0px"
	 y="0px" viewBox="0 0 53 53" style="enable-background:new 0 0 53 53;" xml:space="preserve">
<style type="text/css">
	.st0{fill:#FFFFFF;}
</style>
<g transform="translate(-173 -553)">
	<path class="st0" d="M200.6,584.5c0.7,0.7,0.7,1.8,0,2.5c0,0,0,0,0,0l-3.1,1l-0.5-0.5l1-3.1C198.7,583.8,199.9,583.8,200.6,584.5z
		 M214.5,565.9l-17.8,17.8l-2.3,6.9l6.9-2.3l17.8-17.8L214.5,565.9z"/>
	<path class="st0" d="M223,564.6l-2.6-2.6c-0.6-0.6-1.5-0.6-2,0c0,0,0,0,0,0l-2.5,2.5l4.6,4.6l2.5-2.5
		C223.6,566.2,223.6,565.3,223,564.6C223.1,564.7,223.1,564.7,223,564.6z"/>
	<path class="st0" d="M182.4,590.7h10l0.8-2.5h-10.8V590.7z"/>
	<path class="st0" d="M182.4,575.5h19.9l2.5-2.5h-22.4V575.5z"/>
	<path class="st0" d="M210.2,582.2v19.2h-31.6v-39.1h6.9v3.8h17.7v-3.8h6.9v5.3l3-3l0,0l0.1-0.1l0.7-0.7V561c0-1.4-1.1-2.5-2.5-2.5
		h-10.7v-1.3c0-1.4-1.1-2.5-2.5-2.5h-7.6c-1.4,0-2.5,1.1-2.5,2.5v1.3h-10.7c-1.4,0-2.5,1.1-2.5,2.5v41.7c0,1.4,1.1,2.5,2.5,2.5h34.1
		c1.4,0,2.5-1.1,2.5-2.5v-24.2L210.2,582.2z M193.1,557.8c0.4-0.4,0.8-0.6,1.3-0.5c1,0,1.9,0.8,1.9,1.9c0,1-0.8,1.9-1.9,1.9
		c-1,0-1.9-0.8-1.9-1.9C192.5,558.6,192.7,558.1,193.1,557.8z"/>
	<path class="st0" d="M182.4,583.1h12.3l2.5-2.5h-14.8V583.1z"/>
</g>
</svg>
