<svg width="53" height="53" xmlns="http://www.w3.org/2000/svg" xmlns:xlink="http://www.w3.org/1999/xlink" xml:space="preserve" overflow="hidden"><g transform="translate(-173 -553)"><path d="M203.234 583.53C203.856 584.134 203.87 585.128 203.266 585.75 203.256 585.76 203.245 585.771 203.234 585.782L200.539 586.669 200.064 586.194 200.951 583.499C201.595 582.889 202.608 582.903 203.234 583.53ZM215.413 567.261 199.844 582.864 197.844 588.889 203.9 586.891 219.472 571.323Z" fill="#FFFFFF"/><path d="M222.863 566.121 220.612 563.87C220.124 563.371 219.324 563.362 218.825 563.849 218.818 563.856 218.811 563.863 218.804 563.87L216.584 566.09 220.612 570.115 222.831 567.895C223.329 567.457 223.377 566.698 222.939 566.201 222.915 566.173 222.89 566.147 222.863 566.121Z" fill="#FFFFFF"/><path d="M187.354 588.885 196.1 588.885 196.832 586.677 187.354 586.677 187.354 588.885Z" fill="#FFFFFF"/><path d="M187.354 575.635 204.716 575.635 206.92 573.427 187.354 573.427 187.354 575.635Z" fill="#FFFFFF"/><path d="M211.646 581.487 211.646 598.271 184.042 598.271 184.042 564.042 190.115 564.042 190.115 567.354 205.573 567.354 205.573 564.042 211.646 564.042 211.646 568.691 214.241 566.09 214.241 566.09 214.335 565.995 214.958 565.372 214.958 562.938C214.958 561.718 213.97 560.729 212.75 560.729L203.365 560.729 203.365 559.625C203.365 558.405 202.376 557.417 201.156 557.417L194.531 557.417C193.312 557.417 192.323 558.405 192.323 559.625L192.323 560.729 182.938 560.729C181.718 560.729 180.729 561.718 180.729 562.938L180.729 599.375C180.729 600.595 181.718 601.583 182.938 601.583L212.75 601.583C213.97 601.583 214.958 600.595 214.958 599.375L214.958 578.175ZM196.664 560.102C196.976 559.789 197.402 559.617 197.844 559.625 198.758 559.625 199.5 560.367 199.5 561.281 199.5 562.196 198.758 562.938 197.844 562.938 196.929 562.938 196.188 562.196 196.188 561.281 196.18 560.84 196.352 560.414 196.664 560.102Z" fill="#FFFFFF"/><path d="M187.354 582.26 198.091 582.26 200.295 580.052 187.354 580.052 187.354 582.26Z" fill="#FFFFFF"/></g></svg>