<?xml version="1.0" encoding="utf-8"?>
<!-- Generator: Adobe Illustrator 27.7.0, SVG Export Plug-In . SVG Version: 6.00 Build 0)  -->
<svg version="1.1" id="레이어_1" xmlns="http://www.w3.org/2000/svg" xmlns:xlink="http://www.w3.org/1999/xlink" x="0px"
	 y="0px" viewBox="0 0 53 53" style="enable-background:new 0 0 53 53;" xml:space="preserve">
<style type="text/css">
	.st0{fill:#FFFFFF;}
</style>
<g transform="translate(-506 -557)">
	<path class="st0" d="M515.9,561.6h32.3v43.9h-32.3V561.6z M512.1,609.4h40v-51.6h-40V609.4z"/>
	<path class="st0" d="M533.4,567.4h11v2.6h-11V567.4z"/>
	<path class="st0" d="M533.4,577.7h11v2.6h-11V577.7z"/>
	<path class="st0" d="M533.4,598.4h11v2.6h-11V598.4z"/>
	<path class="st0" d="M533.4,588.1h11v2.6h-11V588.1z"/>
	<path class="st0" d="M529.4,566l-1.8-1.8l-4.3,4.3l-1.7-1.7l-1.8,1.8l3.5,3.5L529.4,566z"/>
	<path class="st0" d="M529.4,576.3l-1.8-1.8l-4.3,4.3l-1.7-1.7l-1.8,1.8l3.5,3.5L529.4,576.3z"/>
	<path class="st0" d="M529.4,586.6l-1.8-1.8l-4.3,4.3l-1.7-1.7l-1.8,1.8l3.5,3.5L529.4,586.6z"/>
	<path class="st0" d="M529.4,596.8l-1.8-1.8l-4.3,4.3l-1.7-1.7l-1.8,1.8l3.5,3.5L529.4,596.8z"/>
</g>
</svg>
