<svg width="53" height="52" xmlns="http://www.w3.org/2000/svg" xmlns:xlink="http://www.w3.org/1999/xlink" xml:space="preserve" overflow="hidden"><g transform="translate(-738 -563)"><path d="M41.1667 11.9167 41.1667 31.4167 10.8333 31.4167 10.8333 11.9167ZM45.5 32.5 44.4167 32.5 44.4167 10.2917 45.5 10.2917C46.0983 10.2917 46.5833 9.80666 46.5833 9.20833 46.5833 8.61001 46.0983 8.125 45.5 8.125L27.0833 8.125 27.0833 7.04167C27.0833 6.44334 26.5983 5.95833 26 5.95833 25.4017 5.95833 24.9167 6.44334 24.9167 7.04167L24.9167 8.125 6.5 8.125C5.90168 8.125 5.41667 8.61001 5.41667 9.20833 5.41667 9.80666 5.90168 10.2917 6.5 10.2917L7.58333 10.2917 7.58333 32.5 6.5 32.5C5.90168 32.5 5.41667 32.985 5.41667 33.5833 5.41667 34.1817 5.90168 34.6667 6.5 34.6667L23.0425 34.6667 14.7008 43.0083C14.2775 43.4361 14.2812 44.1261 14.709 44.5494 15.1368 44.9727 15.8267 44.9691 16.25 44.5413L24.9167 35.8746 24.9167 45.5C24.9167 46.0983 25.4017 46.5833 26 46.5833 26.5983 46.5833 27.0833 46.0983 27.0833 45.5L27.0833 35.8583 35.75 44.525C36.1733 44.9483 36.8596 44.9483 37.2829 44.525 37.7062 44.1017 37.7062 43.4154 37.2829 42.9921L28.9575 34.6667 45.5 34.6667C46.0983 34.6667 46.5833 34.1817 46.5833 33.5833 46.5833 32.985 46.0983 32.5 45.5 32.5Z" fill="#FFFFFF" transform="matrix(1.01923 0 0 1 738 563)"/><path d="M26.5417 16.7917 35.75 16.7917 35.75 18.9583 26.5417 18.9583Z" fill="#FFFFFF" transform="matrix(1.01923 0 0 1 738 563)"/><path d="M23.1833 16.0333 21.6667 14.5167 18.0917 18.0917 16.6833 16.6833 15.1667 18.2 18.0917 21.125 23.1833 16.0333Z" fill="#FFFFFF" transform="matrix(1.01923 0 0 1 738 563)"/><path d="M26.5417 23.8333 35.75 23.8333 35.75 26 26.5417 26Z" fill="#FFFFFF" transform="matrix(1.01923 0 0 1 738 563)"/><path d="M23.1833 23.075 21.6667 21.5583 18.0917 25.1333 16.6833 23.725 15.1667 25.2417 18.0917 28.1667 23.1833 23.075Z" fill="#FFFFFF" transform="matrix(1.01923 0 0 1 738 563)"/></g></svg>